<svg xmlns="http://www.w3.org/2000/svg" width="337.35" height="112.384" viewBox="0 0 337.35 112.384">
  <defs>
    <style>
      .cls-1, .cls-2, .cls-3, .cls-4, .cls-5, .cls-6 {
        fill: #fff;
      }

      .cls-2, .cls-3 {
        font-size: 30px;
      }

      .cls-2, .cls-3, .cls-4, .cls-5, .cls-6 {
        font-family: Raleway-Bold, Raleway;
        font-weight: 700;
      }

      .cls-2, .cls-4, .cls-6 {
        letter-spacing: 0.01em;
      }

      .cls-4, .cls-5 {
        font-size: 32px;
      }

      .cls-6 {
        font-size: 31px;
      }
    </style>
  </defs>
  <g id="envios" transform="translate(-1327.612 -12192.581)">
    <path id="Path_494" data-name="Path 494" class="cls-1" d="M857.53,6071.376h52.088v-77.568a10.417,10.417,0,0,0-.3-2.645,4.555,4.555,0,0,0-4.631-3.582H828.974c-3.75,0-4.763.675-6.056,4.2a3.548,3.548,0,1,1-6.806-2.007,11.943,11.943,0,0,1,12.037-9.372h75.694a12.092,12.092,0,0,1,12.844,12.75c0,5.869,0,11.718,0,17.831h25.688a4.556,4.556,0,0,1,4.781,3.037c4.2,9.376,8.512,18.75,12.713,28.125a8.776,8.776,0,0,1,.75,3.375V6074c0,3.263-1.181,4.444-4.425,4.444H952.78c-3.75,9.619-9.263,14.38-17.381,14.269-9.375-.131-15.244-5.307-17.925-14.214H857.53c-3.75,9.807-9.694,14.513-18.169,14.251a18.114,18.114,0,0,1-17.062-14.305h-5.231a11.981,11.981,0,0,1-12.075-12.787,43.2,43.2,0,0,1,.45-5.157,3.562,3.562,0,1,1,7.088.619c0,1.557-.338,3.114-.431,4.669a4.95,4.95,0,0,0,5.213,5.625h4.913c2.831-9.187,8.794-14.419,18.563-14.231C847.724,6057.314,855.055,6061.89,857.53,6071.376Zm59.381-53.1v53.137l.469.112c.206-.506.45-.993.619-1.519a17.757,17.757,0,0,1,21.338-12.318,17.383,17.383,0,0,1,12.938,12.32,12.492,12.492,0,0,0,.712,1.517l.413-.168v-7.875c-2.775-.168-3.75-.975-3.919-3.207-.337-3.993.337-4.986,3.975-5.812v-6.187c-.375-.093-.694-.187-1.012-.243a36.654,36.654,0,0,1-30.563-26.644c-.937-3.375-.937-3.375-4.462-3.206a2.945,2.945,0,0,0-.525.091Zm-76.725,46.031a10.246,10.246,0,1,1-.019,0Zm94.931,0a10.717,10.717,0,1,1-.019,0Zm15.919-23.926v-.3c-3.187-7.031-6.356-14.082-9.581-21.113-.15-.338-.6-.769-.919-.769H928.555c1.331,10.068,12.694,21.262,22.462,22.18Z" transform="translate(704.345 6212.204)"/>
    <path id="Path_495" data-name="Path 495" class="cls-1" d="M863.573,5991H878.8c3.244,0,4.65,1.536,4.294,4.706-1.106,9.524-2.25,19.069-3.375,28.594a5.343,5.343,0,0,1-2.156,3.75c-4.687,3.523-9.262,7.2-13.987,10.65a7.815,7.815,0,0,1-4.125,1.387c-9.994.114-19.987,0-30,0-3.562,0-4.912-1.651-4.481-5.156,1.106-9.038,2.194-18.057,3.188-27.094a7.011,7.011,0,0,1,2.944-5.325c4.631-3.413,9.094-7.031,13.706-10.443a6.512,6.512,0,0,1,3.488-1.2c5.081-.13,10.162,0,15.244,0Zm-3.45,19.144H835.166c-.9,7.63-1.875,15.168-2.681,22.781h24.937Zm5.044,18.412a31.541,31.541,0,0,1,3.206-2.437,9.185,9.185,0,0,0,5.006-8.419c.225-4.913,1.05-9.789,1.669-15-2.55,1.968-4.875,3.75-7.106,5.513a2.324,2.324,0,0,0-.525,1.481c-.338,2.419-.619,4.856-.9,7.294C866.066,6020.659,865.654,6024.392,865.166,6028.553Zm3.75-30.262a4.5,4.5,0,0,0-.731-.189H849.622a1.747,1.747,0,0,0-.956.15c-1.875,1.444-3.863,2.943-6.094,4.649a6.536,6.536,0,0,1,1.013.113H862a1.869,1.869,0,0,0,1.106-.225c1.931-1.481,3.806-2.924,5.85-4.5Z" transform="translate(721.777 6221.333)"/>
    <path id="Path_496" data-name="Path 496" class="cls-1" d="M824.424,5997.043H812.555a5.409,5.409,0,0,1-3.188-1.1,3.431,3.431,0,0,1,1.5-5.833,6.016,6.016,0,0,1,1.65-.206h23.906c3.038,0,4.819,2.193,3.975,4.726a3.752,3.752,0,0,1-3.937,2.456C832.449,5997.063,828.38,5997.043,824.424,5997.043Z" transform="translate(707.245 6220.538)"/>
    <path id="Path_497" data-name="Path 497" class="cls-1" d="M817.016,6008.35h-10.2a3.564,3.564,0,0,1-3.282-5.382,3.754,3.754,0,0,1,3.394-1.782h20.625a3.62,3.62,0,0,1,3.956,3.639,3.75,3.75,0,0,1-4.162,3.525Z" transform="translate(702.653 6230.4)"/>
    <path id="Path_498" data-name="Path 498" class="cls-1" d="M815.054,6019.944H810.2c-2.55,0-4.125-1.444-4.087-3.637a3.581,3.581,0,0,1,4.012-3.542c3.338,0,6.694,0,10.031,0a3.619,3.619,0,1,1,0,7.182C818.391,6019.963,816.723,6019.944,815.054,6019.944Z" transform="translate(705.346 6240.519)"/>
    <path id="Path_499" data-name="Path 499" class="cls-1" d="M825.226,6028.94a3.435,3.435,0,1,1-3.506,3.544A3.548,3.548,0,0,1,825.226,6028.94Z" transform="translate(719.005 6254.696)"/>
    <path id="Path_500" data-name="Path 500" class="cls-1" d="M876.205,6028.943a3.562,3.562,0,0,1,3.394,3.637,3.6,3.6,0,0,1-3.75,3.432,3.5,3.5,0,0,1-3.338-3.657,3.469,3.469,0,0,1,3.694-3.413Z" transform="translate(763.445 6254.694)"/>
    <g id="Group" transform="translate(1327.612 12210.756)">
      <text id="E" class="cls-2" transform="translate(0 28)"><tspan x="0" y="0">E</tspan></text>
      <text id="n" class="cls-3" transform="translate(20.513 28)"><tspan x="0" y="0">n</tspan></text>
      <text id="víos" class="cls-4" transform="translate(40.931 30)"><tspan x="0" y="0">víos</tspan></text>
      <text id="segu" class="cls-4" transform="translate(0 63.75)"><tspan x="0" y="0">segu</tspan></text>
      <text id="r" class="cls-5" transform="translate(80.494 63.75)"><tspan x="0" y="0">r</tspan></text>
      <text id="os" class="cls-6" transform="translate(93.656 62.75)"><tspan x="0" y="0">os</tspan></text>
    </g>
  </g>
</svg>
