<svg xmlns="http://www.w3.org/2000/svg" width="103.425" height="103.269" viewBox="0 0 103.425 103.269"><path d="M278.757,769.381c-2.363,2.1-4.613,4.237-6.994,6.206a15.827,15.827,0,0,1-7.388,3.75c-4.594.825-9.6-3.262-9.375-7.725a7.2,7.2,0,0,1,2.325-4.987c.994-.956,2.138-1.763,3.281-2.7-.206-.112-.469-.225-.694-.375a35.156,35.156,0,0,1-5.269-3.488,7.5,7.5,0,0,1,.6-11.587,1.875,1.875,0,0,0,.506-1.331q0-17.944,0-35.925a6.188,6.188,0,0,1,1.388-4.087c2.925-3.75,5.625-7.631,8.625-11.419a3.6,3.6,0,0,0,.75-2.287v-8.344c0-1.631.581-2.231,2.194-2.231h31.219c1.612,0,2.194.6,2.212,2.231v8.55a3.393,3.393,0,0,0,.6,1.875q4.575,6.206,9.263,12.375a3.863,3.863,0,0,1,.844,2.494c0,3.206,0,6.394,0,9.731a23.082,23.082,0,0,1,12.488,5.025l.3-.112a27.753,27.753,0,0,0-.544-4.162c-.806-2.869-1.781-5.625-2.7-8.531a17.7,17.7,0,0,1,1.35-14.231l3.094,1.538c-.413,1.088-.844,2.1-1.181,3.15a13.312,13.312,0,0,0,.15,8.494c.956,2.981,1.875,5.962,2.831,8.944a21.839,21.839,0,0,1,.45,2.4c1.05-.45,2.044-.937,3.075-1.312a14.606,14.606,0,0,1,17.869,5.213,29.287,29.287,0,0,1,5.212,13.593,30,30,0,0,1-4.031,20.4,26.361,26.361,0,0,1-8.662,8.887c1.725,1.369,3.506,2.606,5.081,4.069a20.937,20.937,0,0,1,3.525,4.087,4.181,4.181,0,0,1-1.875,6.394,20.049,20.049,0,0,1-7.856,1.875,118.673,118.673,0,0,1-21.281-.412,164.134,164.134,0,0,1-23.381-3.563,44.321,44.321,0,0,1-11.55-4.162,11.776,11.776,0,0,1-6.15-7.031C278.945,770.225,278.851,769.775,278.757,769.381Zm46.2-40.106-1.706-1.219a23.774,23.774,0,0,0-6.844-3.75,10.387,10.387,0,0,0-12.019,3.094c-5.25,6.169-6.469,13.519-5.625,21.338,0,.262.506.581.844.675,2.287.713,4.631,1.237,6.881,2.062a181.566,181.566,0,0,1,31.594,15.244,1.575,1.575,0,0,0,1.875,0,21.075,21.075,0,0,0,6.656-5.944,26.625,26.625,0,0,0,4.95-20.625,24.469,24.469,0,0,0-5.1-12.281,10.706,10.706,0,0,0-6.9-4.125,15.243,15.243,0,0,0-10.237,2.794.993.993,0,0,0-.413.544c-.281,1.519-.525,3.037-.769,4.556l.206.188,1.612-1.875,2.963,1.706a8.794,8.794,0,0,1-7.913,4.425,8.681,8.681,0,0,1-7.5-4.425l3.075-1.763a5.268,5.268,0,0,0,3.45,2.456c.169-.488.338-.938.469-1.406S324.807,729.875,324.957,729.275Zm-6.712,52.313a2.013,2.013,0,0,0,.356,0,122.517,122.517,0,0,0,20.625.731,44.648,44.648,0,0,0,7.669-1.331c1.688-.412,1.875-1.069.731-2.456a35.509,35.509,0,0,0-8.025-6.769l-1.575,5.344-3.413-.994c.544-1.875.994-3.544,1.556-5.231a1.219,1.219,0,0,0-.656-1.706,199.749,199.749,0,0,0-22.894-11.55c-1.763-.769-3.581-1.463-5.419-2.194L302.795,770.6l-3.412-.994,4.444-15.356a40.169,40.169,0,0,0-11.25-2.268,7.5,7.5,0,0,0-7.725,4.893,48.759,48.759,0,0,0-2.456,8.756c-.788,4.237.581,6.787,4.35,8.906a30.679,30.679,0,0,0,4.463,2.006,83.531,83.531,0,0,0,16.875,3.956c2.119.319,4.256.581,6.45.881l1.875-6.6,3.394.994Zm-56.606-31.481v.15c-.825.094-1.669.131-2.475.3a3.919,3.919,0,0,0-2.175,6.769,11.681,11.681,0,0,0,3.394,2.381c1.875.863,3.75,1.5,5.625,2.194.919.319,1.575.806,1.575,1.875s-.638,1.463-1.481,1.875a23.89,23.89,0,0,0-3.994,1.762,11.965,11.965,0,0,0-3.019,2.644,2.869,2.869,0,0,0,.431,4.2,4.969,4.969,0,0,0,5.831,1.163,20.973,20.973,0,0,0,2.044-1.05,46.868,46.868,0,0,0,7.95-6.713,15,15,0,0,0,4.819-8.531,11.246,11.246,0,0,0,.319-3.037,60.323,60.323,0,0,0-1.219-6.656,27.883,27.883,0,0,0-3.75-9.375,5.1,5.1,0,0,0-5.738-1.875,2.888,2.888,0,0,0-2.381,3.113,8.211,8.211,0,0,0,1.425,4.519c.694,1.144,1.538,2.213,2.325,3.319a1.744,1.744,0,0,1,.094,2.138,1.763,1.763,0,0,1-2.025.712c-.337-.094-.656-.206-.994-.281Zm-2.306-24.525v21.112l6.112.281a34.835,34.835,0,0,1-1.219-3.3c-1.294-4.65.937-8.644,5.344-9.375a8.475,8.475,0,0,1,8.906,3.487,28.612,28.612,0,0,1,4.031,9.544c.413,1.575.731,3.188,1.087,4.688a36.635,36.635,0,0,1,3.281-2.269,1.463,1.463,0,0,0,.9-1.5V725.562ZM309.17,711.35H291.376v37.163h3.75V747.35a33.393,33.393,0,0,1,2.569-15.712c2.175-5.138,5.4-9.375,11.044-11.044a.9.9,0,0,0,.525-.619C309.188,717.125,309.17,714.275,309.17,711.35Zm-21.469,0H259.332v10.5H287.72Zm8.869-14.175c-.206,0-.263-.131-.337-.131H269.607a1.462,1.462,0,0,0-.994.581c-2.381,3.112-4.725,6.262-7.087,9.375a5.271,5.271,0,0,0-.338.656h26.963a1.086,1.086,0,0,0,.769-.375c2.55-3.281,5.062-6.656,7.65-10.088Zm1.875-10.781H270.039v6.994h28.369Zm1.875,11.794-7.05,9.375h14.119Z" transform="translate(-252.192 -682.85)" fill="#aac940"/></svg>