<svg xmlns="http://www.w3.org/2000/svg" width="81.169" height="103.112" viewBox="0 0 81.169 103.112"><g transform="translate(-1625.456 -1280.619)"><path d="M879.191,769.178l-2.025-.506a13.725,13.725,0,0,1-10.032-13.125q0-9.9,0-19.8A7.5,7.5,0,0,1,873.116,728l.431-.113v-6.975c0-2.325.525-2.869,2.794-2.906h.731a12.375,12.375,0,0,1,4.8-7.781,11.4,11.4,0,0,1,6.881-2.437h15.9a9.769,9.769,0,0,0,8.306-4.106c.262-.337.525-.694.806-1.031a2.006,2.006,0,0,1,3.375.169,17.771,17.771,0,0,0,1.875,2.288,8.418,8.418,0,0,0,6.225,2.625A12.544,12.544,0,0,1,937.728,717.9l.188.188h1.05a2.062,2.062,0,0,1,2.306,2.287v7.5c.488.131.9.225,1.313.356a7.369,7.369,0,0,1,5.1,6.9q0,10.406,0,20.813a13.706,13.706,0,0,1-11.25,13.125,4.939,4.939,0,0,0-.75.206ZM877.6,727.8h19.8a7.323,7.323,0,0,1,1.106,0,1.969,1.969,0,0,1,1.875,2.044,1.875,1.875,0,0,1-1.875,1.875H875.535c-3.225,0-4.388,1.144-4.388,4.331v19.012a9.675,9.675,0,0,0,9.956,9.975h52.5a9.694,9.694,0,0,0,9.975-9.975v-19.5a4.344,4.344,0,0,0-.113-1.106,3.469,3.469,0,0,0-3.75-2.625h-22.5c-1.875,0-2.775-.694-2.756-2.025s.975-2.006,2.812-2.006h19.875v-5.625H877.6Zm55.875-9.731a8.213,8.213,0,0,0-7.388-6.244,26.1,26.1,0,0,1-3.206-.3,13.5,13.5,0,0,1-7.5-4.312,14.663,14.663,0,0,1-12,4.612c-4.519-.113-9.056,0-13.575,0a10.817,10.817,0,0,0-3.75.656,7.875,7.875,0,0,0-4.819,5.625Z" transform="translate(758.734 614.46)" fill="#aac940"/><path d="M897.661,695.684a19.012,19.012,0,0,1,4.088-7.031,17.961,17.961,0,0,1,11.812-5.794,6.713,6.713,0,0,1,7.5,7.931,18.169,18.169,0,0,1-18.938,16.162H901V715.3a2.006,2.006,0,1,1-3.994,0v-2.981c-1.875-.169-3.75-.187-5.625-.525a18.169,18.169,0,0,1-14.531-16.031,6.769,6.769,0,0,1,8.194-7.65,18.319,18.319,0,0,1,12.262,7.125,5.3,5.3,0,0,0,.356.45Zm-.994,9.469.187-.15a2.993,2.993,0,0,0-.131-1.069,14.231,14.231,0,0,0-12.45-11.85c-2.512-.244-3.75,1.013-3.375,3.506a17.858,17.858,0,0,0,1.594,5.025,13.912,13.912,0,0,0,11.494,7.5l-.9-.956c-.844-.862-1.725-1.688-2.531-2.588a1.976,1.976,0,0,1,1.856-3.244,3.152,3.152,0,0,1,1.331.806c1.013.994,1.95,2.025,2.925,3.019ZM901,700l.938-.881c1.088-1.069,2.156-2.175,3.281-3.244a1.976,1.976,0,0,1,3.338,1.8,3.355,3.355,0,0,1-.844,1.331c-1.219,1.275-2.475,2.512-3.75,3.75A14.156,14.156,0,0,0,917.086,689.8a2.663,2.663,0,0,0-3.169-3.038A14.269,14.269,0,0,0,901,700.053Z" transform="translate(767.17 597.822)" fill="#aac940"/><path d="M875.629,699.745v2.55a2.006,2.006,0,0,1-1.988,2.175,2.044,2.044,0,0,1-2.006-2.194v-2.531h-2.494a2.006,2.006,0,0,1-2.231-1.875,2.082,2.082,0,0,1,2.231-2.081h2.513v-2.925a1.875,1.875,0,0,1,1.987-1.763,1.969,1.969,0,0,1,1.875,1.875v2.888h2.4a2.119,2.119,0,0,1,2.325,2.006c0,1.219-.9,2.006-2.363,2.025Z" transform="translate(758.546 605.086)" fill="#aac940"/><path d="M907.84,701.018v-2.569a1.875,1.875,0,0,1,1.875-2.119,2.007,2.007,0,0,1,2.062,2.119c0,.394,0,.787,0,1.2v1.406H914.7a1.877,1.877,0,0,1-.113,3.75,8.558,8.558,0,0,1-1.2,0h-1.706v2.4c0,1.425-.788,2.306-1.875,2.325a2.144,2.144,0,0,1-2.044-2.344v-2.1h-2.437a2.044,2.044,0,0,1-2.287-1.987,2.081,2.081,0,0,1,2.287-2.025Z" transform="translate(790.16 609.663)" fill="#aac940"/><path d="M878.4,701.919a1.875,1.875,0,0,1-1.875,2.044,2.006,2.006,0,1,1,0-4.013A1.968,1.968,0,0,1,878.4,701.919Z" transform="translate(765.205 612.831)" fill="#aac940"/><path d="M903.152,693.147a1.875,1.875,0,0,1,1.875-1.988,2.006,2.006,0,0,1,2.025,1.875,2.044,2.044,0,0,1-2.025,2.063,2.006,2.006,0,0,1-1.875-1.95Z" transform="translate(790.255 605.14)" fill="#aac940"/></g></svg>