<svg xmlns="http://www.w3.org/2000/svg" width="114.11" height="102.149" viewBox="0 0 114.11 102.149"><g transform="translate(-1336.521 -1280.654)"><path d="M798.749,731.081q-6.019,13.275-12.019,26.513c-.319.712-.694,1.406-.956,2.137a2.606,2.606,0,0,1-2.812,1.875H760.124c0,1.069-.169,2.081-.187,3.112a1.9,1.9,0,0,1-3.6,1.012q-5.625-8.194-11.063-16.425a2.044,2.044,0,0,1,.094-2.587q6.206-7.988,12.469-15.956A1.894,1.894,0,1,1,761.418,732v3.6l11.587-.975c-.225-.431-.394-.787-.581-1.125q-4.275-7.725-8.569-15.488c-.956-1.744-.712-2.625,1.05-3.619l18.188-10.106c2.062-1.144,2.681-.975,3.75,1.144l12.037,24.806Zm-42.244,28.125a2.738,2.738,0,0,1,2.756-1.312h22.5a1.312,1.312,0,0,0,1.425-.881c2.813-6.337,5.625-12.637,8.55-18.956.131-.263.206-.562.356-.975-4.144.281-8.1.525-12.056.844-6.431.525-12.862,1.106-19.294,1.65-2.194.169-2.7-.225-3.112-2.456l-8.569,10.987Zm11.063-42.075c2.963,5.419,5.925,10.688,8.775,16.013a1.875,1.875,0,0,0,2.081,1.069c4.65-.413,9.375-.731,13.988-1.05a2.306,2.306,0,0,0,2.006-3.394l-10.2-20.756-.525-.919Z" transform="translate(651.751 616.012)" fill="#aac940"/><path d="M746.915,724.756,741.8,735.012l9.375.431,10.012.45a2.156,2.156,0,0,1,2.344,2.475v20.625c0,1.688-.712,2.4-2.362,2.4H734a2.493,2.493,0,0,1-2.213-1.237l-18.469-27.394a2.457,2.457,0,0,1,0-2.981c3.75-6.188,7.5-12.413,11.25-18.619l.731-1.219c-.825-.562-1.594-1.144-2.381-1.669a2.043,2.043,0,0,1-1.106-2.437c.319-1.05,1.181-1.294,2.194-1.313l19.237-.675c1.763,0,2.175.225,2.756,1.875,2.269,6.075,4.519,12.15,6.806,18.225.356.956.581,1.875-.337,2.625a2.1,2.1,0,0,1-2.663,0Zm-17.269,25.256c.262-.45.469-.769.656-1.125l13.744-26.7c1.05-2.044,1.406-2.213,3.581-1.556a1.327,1.327,0,0,0,0-.431c-1.444-3.975-2.925-7.931-4.369-11.906-.225-.619-.6-.694-1.162-.675l-11.569.525a4.975,4.975,0,0,0-.787.169,2.138,2.138,0,0,1-.206,2.644c-4.012,6.45-7.988,12.937-12,19.388a1.388,1.388,0,0,0,0,1.763c3.862,5.625,7.669,11.25,11.494,16.875a3.83,3.83,0,0,0,.656,1.087ZM759.478,739.7c-6.394-.3-12.638-.581-18.9-.825a1.481,1.481,0,0,0-1.031.731c-1.987,3.75-3.75,7.5-5.962,11.25a4.331,4.331,0,0,0,.319,5.869,2.006,2.006,0,0,0,1.688.919h23.888Z" transform="translate(623.71 616.244)" fill="#aac940"/><path d="M788.126,705.662l3.112-1.162a1.875,1.875,0,0,1,2.306,2.813c-3.506,5.625-6.975,11.25-10.5,16.781a2.156,2.156,0,0,1-2.756,1.069l-19.013-4.631a1.4,1.4,0,0,1-.638-.169,5.084,5.084,0,0,1-1.35-1.575c-.3-.769.187-1.425.919-1.875,1.125-.619,2.287-1.2,3.525-1.875l-5.625-9.994c-.319.412-.562.694-.769.975L746.82,720.249c-1.256,1.706-2.1,1.875-3.75.6L726.2,708.38c-1.631-1.219-1.763-2.325-.45-3.9q8.438-10.181,16.875-20.344a3.319,3.319,0,0,1,2.775-1.313h30.394a2.606,2.606,0,0,1,2.719,1.875c2.906,6.563,5.887,13.125,8.85,19.65Zm-.9,4.369A2.606,2.606,0,0,1,785,708.155c-3.075-6.862-6.187-13.725-9.263-20.625a1.444,1.444,0,0,0-1.538-1.05H752.483c.244.487.375.825.563,1.144q6.019,11.025,12.075,22.05c.919,1.688,1.875,3.356,2.812,5.044a1.875,1.875,0,0,1-.75,2.925,3.755,3.755,0,0,1-.488.206c4.369,1.237,8.531,2.269,12.731,3.244a1.313,1.313,0,0,0,1.106-.506c1.387-2.1,2.7-4.256,4.031-6.394.9-1.406,1.744-2.794,2.663-4.256Zm-42.844,6.881c3.75-4.969,7.5-9.862,11.25-14.738a1.368,1.368,0,0,0,.112-1.762c-2.306-4.238-4.575-8.475-6.844-12.731a2.325,2.325,0,0,0-3.862-.375L734.333,700.13l-4.8,5.756Z" transform="translate(634.249 597.838)" fill="#aac940"/></g></svg>