<svg xmlns="http://www.w3.org/2000/svg" width="33.823" height="33.638" viewBox="0 0 33.823 33.638"><g transform="translate(-974.079 -5323.146)"><path d="M527.6,3239.95a2.154,2.154,0,0,0-1.875-.489,30.814,30.814,0,0,1-11.962,1.763,28.117,28.117,0,0,1-8.493-1.875,16.875,16.875,0,0,0,22.856,2.137A2.284,2.284,0,0,0,527.6,3239.95Z" transform="translate(473.111 2111.806)" fill="#AAC940"/><path d="M508.8,3249.448a13.25,13.25,0,0,0,4.406-2.381,11.039,11.039,0,0,1,6.225-1.876,19.1,19.1,0,0,1,8.138,2.832,5.139,5.139,0,0,0-2.625-3.525c-1.687-1.088-3.75-1.631-5.268-2.869a15.5,15.5,0,0,1-4.425-5.194c-1.012-1.875-1.875-4.069-2.944-5.962a5.307,5.307,0,0,0-4.819-3.244,16.875,16.875,0,0,0-1.706,20.794,3.225,3.225,0,0,0,3.019,1.424Z" transform="translate(471.104 2101.202)" fill="#AAC940"/><path d="M518.371,3244.708c-.506,1.668-.562,2.475-.187,3.225a1.876,1.876,0,0,0,1.425.9,16.33,16.33,0,0,0,3.469-6.469,16.875,16.875,0,0,0-2.381-14.175,10.146,10.146,0,0,1,.656,3.506C521.558,3236.233,519.627,3240.6,518.371,3244.708Z" transform="translate(484.198 2102.042)" fill="#AAC940"/><path d="M506.35,3228.158h0a14.75,14.75,0,0,1,4.762,1.032,17.212,17.212,0,0,1,9.15,7.743c2.362,4.257,3.75,9.995,5.362,13.126a12.339,12.339,0,0,0,2.681,3.75,11.291,11.291,0,0,0,.844-.787,9.374,9.374,0,0,1-3.562-10.837c1.237-4.351,3.3-5.513,4.387-8.589a3.749,3.749,0,0,0-1.05-4.237,17.187,17.187,0,0,0-7.5-4.332,16.739,16.739,0,0,0-11.25.806A22.332,22.332,0,0,0,506.35,3228.158Z" transform="translate(474.056 2098.735)" fill="#AAC940"/></g></svg>