<svg xmlns="http://www.w3.org/2000/svg" width="115.472" height="103.489" viewBox="0 0 115.472 103.489"><path d="M523.36,773.148a2.831,2.831,0,0,1-2.981,1.743h-8.306v8.1c0,2.494-.712,3.188-3.225,3.188H495.535c-2.269,0-3.037-.787-3.037-3.037v-8.325a8.024,8.024,0,0,0-1.762.45,48.581,48.581,0,0,1-37.2,2.644,1.482,1.482,0,0,0-1.594.337c-3.281,2.55-6.638,5.025-9.956,7.5a2.868,2.868,0,0,1-2.663.413A41.033,41.033,0,0,1,429.4,781.7a2.194,2.194,0,0,1-.863-3.019,2.25,2.25,0,0,1,3.113-.9c1.162.581,2.288,1.238,3.75,2.006-.281-.619-.431-.975-.619-1.313-3.6-6.619-7.237-13.237-10.819-19.875a3.244,3.244,0,0,1-.375-2.287,2.625,2.625,0,0,1,1.725-1.481c.619-.131,1.425.375,2.063.75.337.206.506.731.712,1.125l10.744,19.65a2.776,2.776,0,0,0,.844,1.013c.15-1.088.337-2.175.45-3.281a39.92,39.92,0,0,0-2.156-19.275A33.094,33.094,0,0,0,425.41,740a52.136,52.136,0,0,0-11.362-5.906c-.338,1.875-.731,3.75-.975,5.625a41.251,41.251,0,0,0,1.481,19.238,66.956,66.956,0,0,0,2.888,6.094c.244.525.6,1.219.431,1.669a4.126,4.126,0,0,1-1.35,1.875,1.594,1.594,0,0,1-2.156-.319,10.405,10.405,0,0,1-1.594-2.138,40.351,40.351,0,0,1-4.687-22.5,54.376,54.376,0,0,1,2.138-12.75,2.363,2.363,0,0,1,3.412-1.875c.731.225,1.425.487,2.138.75l2.025.769v-3.094c0-2.287.694-3.075,2.962-3.075h23.55a3.169,3.169,0,0,0,1.781-.675c3.075-2.325,6.056-4.781,9.188-7.031,2.194-1.594,3.337-1.238,4.575,1.125s2.194,4.35,3.319,6.619h8.606a1.554,1.554,0,0,0,.938-.469q11.7-12.525,23.325-25.088a1.875,1.875,0,0,0,.3-1.406,12.956,12.956,0,1,1,25.781-.825,12.393,12.393,0,0,1-12.187,12.037,2.963,2.963,0,0,0-2.4,1.106c-4.181,4.669-8.4,9.375-12.6,13.969a6.28,6.28,0,0,0-.525.638h22.725c2.138,0,2.906.787,2.888,2.944a55.63,55.63,0,0,1-7.2,26.775l-.581,1.144h8.138a2.925,2.925,0,0,1,3.037,1.612Zm-58.669-44.1c5.494,16.537,3.525,31.65-8.494,44.831,6.375,2.531,19.013,2.513,25.163,0,0-.994-.15-1.875-.15-2.906V758.579c0-2.719.6-3.319,3.3-3.319h7.912v-8.419c0-2.081.769-2.869,2.85-2.869h12.6c1.425,0,2.962-.337,3.994,1.256a50.011,50.011,0,0,0,3.356-16.237Zm-20.456,49.594.394-.244A57.544,57.544,0,0,0,455.5,767.5a35.624,35.624,0,0,0,7.275-17.456,45.339,45.339,0,0,0-2.006-18.337,60.388,60.388,0,0,0-4.35-10.594c-2.344,1.875-4.669,3.619-6.806,5.625a46.277,46.277,0,0,0-12.262,16.481,1.725,1.725,0,0,0,.225,2.025,23.062,23.062,0,0,1,2.719,4.125c1.387,2.888,2.569,5.888,3.75,8.682a9.5,9.5,0,0,1,.394-1.069c.638-1.875,1.237-3.919,1.875-5.888a2.287,2.287,0,0,1,2.906-1.612,2.325,2.325,0,0,1,1.444,3,2.2,2.2,0,0,1-.244.75l-5.231,16.05a5.354,5.354,0,0,0-.3,1.2C444.685,773.148,444.46,775.848,444.235,778.641Zm74.438-8.419V759.8h-8.55c-1.875,0-2.625-.806-2.644-2.606v-8.663H497.017v8.644a2.269,2.269,0,0,1-2.588,2.55h-8.644v10.425h8.588a2.344,2.344,0,0,1,2.644,2.644v8.569h10.463V773.3c0-2.456.694-3.15,3.131-3.15Zm-17.925-74.494a8.325,8.325,0,1,1,.037,0Zm2.606,11.737-2.7-1.875c-.9-.675-1.763-1.369-2.7-2.1L478.473,724.4h9.244c.319,0,.694-.356.956-.637l8.625-9.506Zm-62.887,21.563H422.3c.094,1.012.225,1.875.225,2.888s.394,1.125,1.013,1.556c3.056,2.081,6.075,4.256,9.094,6.394l.581.45Z" transform="translate(-407.945 -682.831)" fill="#aac940"/></svg>