<svg xmlns="http://www.w3.org/2000/svg" width="102.181" height="102.281" viewBox="0 0 102.181 102.281"><path d="M666.387,736.81v15a3.739,3.739,0,0,1-.169.656,47.512,47.512,0,0,1-1.106,5.625,59.634,59.634,0,0,1-2.7,6.75,1.875,1.875,0,0,1-2.606.919,1.987,1.987,0,0,1-.9-2.719c.188-.431.413-.825.619-1.256a24.56,24.56,0,0,0,2.644-9.375c.225-4.894.187-9.787.225-14.681a2.644,2.644,0,0,0-1.763-2.569,2.794,2.794,0,0,0-3.862,2.756v12.3a15.131,15.131,0,0,1-4.369,10.931c-3.75,3.863-7.669,7.688-11.494,11.531a3.91,3.91,0,0,1-.525.45,1.969,1.969,0,0,1-2.794-2.682,6.058,6.058,0,0,1,.731-.825c3.487-3.525,7.012-7.013,10.481-10.556a4.725,4.725,0,0,0,1.2-1.875,3.244,3.244,0,0,0-1.537-3.75,3.319,3.319,0,0,0-4.125.544q-4.312,4.237-8.531,8.569a3.412,3.412,0,0,1-2.456,1.106,13.761,13.761,0,0,0-9.056,3.619,20.925,20.925,0,0,0-6.956,15,2.981,2.981,0,0,1-1.425,2.813h-1.2a2.944,2.944,0,0,1-1.444-2.812,20.307,20.307,0,0,0-3.094-10.406c-2.963-4.838-7.012-8.062-12.919-8.306a3.412,3.412,0,0,1-2.437-1.106c-2.756-2.813-5.513-5.625-8.344-8.325a4.95,4.95,0,0,0-2.325-1.2,3.15,3.15,0,0,0-3.338,1.875,3.375,3.375,0,0,0,.694,3.956c3.469,3.506,6.956,6.975,10.425,10.463a9.6,9.6,0,0,1,1.031,1.106,1.875,1.875,0,0,1-1.406,3.113,3.149,3.149,0,0,1-1.875-.863c-3.75-3.619-7.275-7.312-10.95-10.931a15.731,15.731,0,0,1-4.875-11.831V738.029a2.831,2.831,0,1,0-5.625,0v10.294a29.175,29.175,0,0,0,9.019,21.862c3.75,3.637,7.294,7.313,10.95,10.969,1.556,1.556,1.425,2.719-.412,3.919h-.994a7.985,7.985,0,0,1-1.106-.806c-4.237-4.238-8.569-8.4-12.675-12.769a30.525,30.525,0,0,1-8.569-19.331c-.319-4.95-.15-9.919-.188-14.887a5.624,5.624,0,0,1,.319-1.65,6.787,6.787,0,0,1,13.275,1.875c0,1.237,0,2.475,0,3.75,1.537-2.4,2.887-4.819,4.537-6.994s3.638-4.237,5.513-6.375l-3.375-4.275a3.061,3.061,0,0,0-.431.131,11.831,11.831,0,0,1-16.65-8.344,2.212,2.212,0,0,0-.581-.994,9.525,9.525,0,0,1,13.481-13.444,2.949,2.949,0,0,0,1.181.6,11.893,11.893,0,0,1,6.638,18.863c-.206.281-.394.863-.244,1.05.975,1.388,2.062,2.681,3.15,4.069a41.782,41.782,0,0,1,10.519-5.512,44.148,44.148,0,0,1,11.625-2.325v-5.438l-1.069.487a12.037,12.037,0,1,1-9.544-22.087,2.514,2.514,0,0,0,1.106-1.013,13.125,13.125,0,0,1,8.832-6.487l1.425-.356h2.794a2.2,2.2,0,0,0,.45.169,13.126,13.126,0,0,1,9.806,6.938,2.043,2.043,0,0,0,1.012.844,12.043,12.043,0,0,1-9.862,21.975c-.263-.131-.525-.225-.806-.338v5.419a41.476,41.476,0,0,1,22.144,7.819c1.031-1.294,1.987-2.569,3.019-3.75a.828.828,0,0,0,0-1.256,11.813,11.813,0,0,1,6.506-18.919,3.338,3.338,0,0,0,1.444-.75,9.506,9.506,0,0,1,15.45,3.994c.188.562.338,1.125.506,1.688v2.606a12.266,12.266,0,0,1-2.4,5.063,4.334,4.334,0,0,0-.919,1.706,11.775,11.775,0,0,1-13.125,8.85,33.7,33.7,0,0,1-3.75-1.031l-3.694,4.331a44.453,44.453,0,0,1,10.05,13.125c.113-1.294,0-2.531.113-3.75a6.75,6.75,0,0,1,6.037-6.506,6.825,6.825,0,0,1,7.275,4.819A5.57,5.57,0,0,1,666.387,736.81Zm-77.363-4.031h2.606a8.476,8.476,0,0,1,6.169,2.85,8.869,8.869,0,0,1-.956,12.956,8.212,8.212,0,0,0-3.394,6.169,1.707,1.707,0,0,0,.394,1.144c1.05,1.144,2.175,2.25,3.3,3.319a1.875,1.875,0,0,0,1.031.506,18.749,18.749,0,0,1,14.306,8.569c1.05,1.481,1.875,3.094,2.831,4.631.713-1.237,1.369-2.55,2.156-3.75a19.237,19.237,0,0,1,15-9.375,1.368,1.368,0,0,0,.75-.225c1.088-1.05,2.156-2.138,3.338-3.319-.638-.525-1.144-.994-1.706-1.369-1.444-.975-2.963-1.875-4.35-2.85a13.462,13.462,0,0,1-5.756-13.5,13.612,13.612,0,0,1,8.794-11.006l.825-.337A36.881,36.881,0,0,0,589.024,732.779Zm28.613-25.237a15.1,15.1,0,0,0,1.256.994,7.669,7.669,0,0,0,8.569.094,7.987,7.987,0,0,0-1.687-14.381,3.394,3.394,0,0,1-2.175-1.875,9.075,9.075,0,0,0-16.612,0,3.262,3.262,0,0,1-2.175,1.875,8.006,8.006,0,0,0-1.219,14.7,7.5,7.5,0,0,0,8.269-.675,7.781,7.781,0,0,1-.975-.731q-1.875-1.763-3.6-3.6a1.875,1.875,0,0,1-.3-2.381,1.763,1.763,0,0,1,2.119-.919,3.466,3.466,0,0,1,1.313.825c.937.863,1.875,1.875,2.869,2.85v-8.588a2.006,2.006,0,1,1,3.994,0q0,2.813,0,5.625a4.106,4.106,0,0,0,.112,1.013,11.38,11.38,0,0,1,.806-.956,2.062,2.062,0,0,1,3.075-.281,2.025,2.025,0,0,1-.262,3.075C620.037,705.291,618.837,706.36,617.637,707.541ZM651.5,750.666a1.868,1.868,0,0,0,0-.356A36.806,36.806,0,0,0,639.612,730.9a1.875,1.875,0,0,0-1.088-.319,9.975,9.975,0,0,0-5.475,18.338l6.469,4.313c3.169-3.919,6.994-5.888,11.981-2.569Zm-64.762-37.5a7.744,7.744,0,0,0-6.413-7.669,4.594,4.594,0,0,1-2.719-1.463,5.475,5.475,0,1,0-7.8,7.669,5.138,5.138,0,0,1,1.556,2.981,7.763,7.763,0,0,0,15.375-1.519Zm57.094,0a7.763,7.763,0,0,0,15.394,1.519,4.369,4.369,0,0,1,1.294-2.7,5.475,5.475,0,1,0-7.819-7.65,3,3,0,0,1-2.006,1.106,7.819,7.819,0,0,0-6.863,7.725ZM589.85,751.9a12.844,12.844,0,0,1,4.444-6.356,4.819,4.819,0,0,0,1.594-5.475,4.875,4.875,0,0,0-4.744-3.3h-4.987a1.557,1.557,0,0,0-1.088.6c-1.519,2.662-3.075,5.288-4.406,8.044a44.486,44.486,0,0,0-1.875,5.344C583.024,748.06,586.587,748.547,589.85,751.9Z" transform="translate(-564.243 -682.81)" fill="#aac940"/></svg>