<svg xmlns="http://www.w3.org/2000/svg" width="103.279" height="103.557" viewBox="0 0 103.279 103.557"><path d="M214.529,694.847V722.5c-.6,1.162-1.144,2.344-1.781,3.469-.9,1.575-1.875,3.094-2.756,4.687a5.325,5.325,0,0,0-.619,2.269v15a1.631,1.631,0,0,0,.806,1.556A5.456,5.456,0,0,1,212.748,755a20.758,20.758,0,0,1-.881,3.019,6.543,6.543,0,0,1,2.7,3.975V764a6.562,6.562,0,0,1-4.144,4.706,6.131,6.131,0,0,1,.262,5.081,6.225,6.225,0,0,1-3.75,3.488l.206.562a6.056,6.056,0,0,1-3.9,8.119,4.561,4.561,0,0,0-.637.263H175.023c-1.144-.6-2.325-1.144-3.45-1.875-1.631-.937-3.206-1.875-4.856-2.869a3.75,3.75,0,0,0-1.781-.506h-15.6a1.238,1.238,0,0,0-1.2.656A5.625,5.625,0,0,1,142.1,784.3a14.213,14.213,0,0,1-2.588-.9,6.376,6.376,0,0,1-3.975,2.756h-2.025A6.525,6.525,0,0,1,128.823,782a5.98,5.98,0,0,1-5.081.263,6.093,6.093,0,0,1-3.45-3.75c-5.138,2.231-9.15-1.875-9-6.488.244-8.062,0-16.144.112-24.206a7.65,7.65,0,0,1,.937-3.431c1.106-2.137,2.475-4.162,3.75-6.262a3.412,3.412,0,0,0,.506-1.687v-15.75a1.594,1.594,0,0,0-.619-1.088,6.225,6.225,0,0,1-2.7-3.975,85.052,85.052,0,0,0,2.269-15.525,5.981,5.981,0,0,1-.244-4.969,6.244,6.244,0,0,1,3.75-3.487,3.854,3.854,0,0,0-.131-.469,6.037,6.037,0,0,1,4.05-8.269l.431-.206h27.619c1.125.562,2.269,1.106,3.375,1.725,1.65.938,3.262,1.988,4.931,2.906a3.75,3.75,0,0,0,1.875.525h15.6a1.35,1.35,0,0,0,1.256-.731,5.513,5.513,0,0,1,5.625-2.663,20.75,20.75,0,0,1,3.019.881,6.468,6.468,0,0,1,3.956-2.681h2.006A6.563,6.563,0,0,1,197,687.048a5.945,5.945,0,0,1,5.063-.263,6.113,6.113,0,0,1,3.45,3.638h.3a6,6,0,0,1,8.475,4.2.994.994,0,0,0,.244.225Zm-37.912-3.281H161.448a7.912,7.912,0,0,1-4.481-1.256c-1.875-1.181-3.75-2.325-5.625-3.413a4.387,4.387,0,0,0-1.875-.525H125.092c-1.987,0-3.3,1.013-3.337,2.569s1.238,2.625,3.375,2.625h6.937a1.668,1.668,0,0,1,1.725,1.612,1.744,1.744,0,0,1-1.575,1.875,4.819,4.819,0,0,1-.9,0H121.248a2.719,2.719,0,0,0-2.925,2.568,2.587,2.587,0,0,0,2.888,2.55h6.637c1.688,0,2.55.619,2.512,1.875s-.844,1.669-2.512,1.669h-9.769a5.066,5.066,0,0,0-1.763.319,2.475,2.475,0,0,0-1.387,2.663,2.756,2.756,0,0,0,2.775,2.194h10.462c1.369,0,2.175.638,2.194,1.688s-.806,1.744-2.231,1.744h-8.55a2.606,2.606,0,0,0-2.944,2.494,2.7,2.7,0,0,0,2.906,2.681h19.331a1.669,1.669,0,0,1,1.312,2.587,11.745,11.745,0,0,1-.731.956c-1.35,1.65-2.7,3.281-4.013,4.931a2.062,2.062,0,0,0-.187,2.531,1.875,1.875,0,0,0,2.269.881,3.9,3.9,0,0,0,1.481-.994c5.306-5.231,10.612-10.481,15.862-15.769a6.375,6.375,0,0,1,5.025-2.081h4.688a17.188,17.188,0,0,1,.206-3.187,5.625,5.625,0,0,1,8.812-2.887c.956.731,1.875,1.5,2.906,2.362Zm-27.356,86.1H164.8a6.843,6.843,0,0,1,3.75,1.012c1.969,1.219,3.956,2.438,5.981,3.563a4.6,4.6,0,0,0,2.156.6h24.075a7.213,7.213,0,0,0,1.106,0,2.756,2.756,0,0,0,2.381-2.588,2.625,2.625,0,0,0-2.419-2.531,9.184,9.184,0,0,0-1.012,0h-6.844a1.669,1.669,0,0,1-1.763-1.687,1.725,1.725,0,0,1,1.631-1.725,7.235,7.235,0,0,1,.9,0h9.975a2.7,2.7,0,0,0,2.963-2.625,2.644,2.644,0,0,0-2.944-2.494h-7.05c-1.275,0-2.063-.694-2.044-1.744s.769-1.688,2.063-1.688h9.975a8.54,8.54,0,0,0,1.2,0,2.532,2.532,0,0,0,2.212-2.269,2.606,2.606,0,0,0-1.669-2.606,4.444,4.444,0,0,0-1.481-.225H197.767c-1.312,0-2.137-.675-2.119-1.744s.806-1.669,2.081-1.687h8.962a2.531,2.531,0,0,0,2.662-2.456,2.625,2.625,0,0,0-2.437-2.7H187.379A1.762,1.762,0,0,1,185.954,749l.506-.619c1.294-1.594,2.606-3.169,3.881-4.763a2.063,2.063,0,0,0,.225-2.531,1.875,1.875,0,0,0-2.25-.937,3.749,3.749,0,0,0-1.481.975q-7.181,7.05-14.325,14.194c-3.75,3.75-3.431,3.75-8.888,3.75H161a5.625,5.625,0,0,1-8.944,5.963c-.9-.694-1.781-1.444-2.756-2.25ZM205.9,748.341V732.816a6.882,6.882,0,0,1,1.05-3.75c1.2-1.875,2.4-3.881,3.506-5.888a4.6,4.6,0,0,0,.6-2.156V696.8a7.237,7.237,0,0,0,0-.9,2.719,2.719,0,0,0-2.569-2.512,2.625,2.625,0,0,0-2.569,2.494v7.763a1.669,1.669,0,0,1-1.631,1.875,1.875,1.875,0,0,1-1.875-1.706V692.916a2.681,2.681,0,0,0-2.569-2.906,2.606,2.606,0,0,0-2.531,2.906v6.563c0,1.725-.544,2.569-1.706,2.587s-1.725-.806-1.725-2.531v-9.694a5.513,5.513,0,0,0-.225-1.669A2.531,2.531,0,0,0,191,686.6a2.7,2.7,0,0,0-2.25,2.7v10.2c0,1.706-.563,2.569-1.706,2.587s-1.725-.844-1.725-2.55v-8.587a2.531,2.531,0,0,0-2.381-2.625,2.625,2.625,0,0,0-2.719,2.325,6.432,6.432,0,0,0,0,1.2v18.169c0,.9,0,1.763-1.012,2.213s-1.669-.094-2.344-.675l-.394-.319c-1.556-1.275-3.094-2.569-4.669-3.75a2.194,2.194,0,0,0-2.625-.206,1.875,1.875,0,0,0-.863,2.288,3.581,3.581,0,0,0,.938,1.388q8.025,8.156,16.087,16.275a5.625,5.625,0,0,1,1.762,4.238V736a7.641,7.641,0,0,0,0,.769,15.911,15.911,0,0,1,2.681,0,5.475,5.475,0,0,1,3.394,8.756c-.75,1.012-1.556,1.969-2.438,3.056ZM119.973,720.91v15.619a6.75,6.75,0,0,1-.994,3.75c-1.219,1.875-2.437,3.938-3.562,5.963a4.668,4.668,0,0,0-.6,2.175v24.375a6.093,6.093,0,0,0,0,1.012,2.756,2.756,0,0,0,2.344,2.306,2.512,2.512,0,0,0,2.513-1.519,4.931,4.931,0,0,0,.262-1.669V765.76a1.669,1.669,0,0,1,1.631-1.706,1.744,1.744,0,0,1,1.744,1.519,6.093,6.093,0,0,1,0,1.012v9.994a2.7,2.7,0,0,0,2.606,2.981c1.519,0,2.512-1.181,2.512-3.019v-6.656a4.612,4.612,0,0,1,0-1.012,1.706,1.706,0,0,1,1.744-1.369,1.669,1.669,0,0,1,1.575,1.538,9.123,9.123,0,0,1,0,1.013v9.787c0,1.875.975,3.131,2.513,3.169s2.644-1.275,2.662-3.15V769.247a1.706,1.706,0,0,1,1.706-1.744,1.744,1.744,0,0,1,1.706,1.763q0,.45,0,.9v8.381a2.55,2.55,0,0,0,2.438,2.7,2.625,2.625,0,0,0,2.7-2.456,7.2,7.2,0,0,0,0-1.106V759.929a2.852,2.852,0,0,1,0-.9,4.5,4.5,0,0,1,.938-1.631,1.463,1.463,0,0,1,1.875.225l5.625,4.594a2.025,2.025,0,0,0,2.531.15,1.875,1.875,0,0,0,.862-2.288,3.581,3.581,0,0,0-.937-1.387q-7.988-8.119-16.031-16.2a5.625,5.625,0,0,1-1.875-4.406v-5.212a1.3,1.3,0,0,0-.356,0,5.594,5.594,0,0,1-5.325-9.394l1.875-2.419Zm63.581,13.875v-3.637a2.868,2.868,0,0,0-.675-1.687q-7.369-7.5-14.813-15a1.876,1.876,0,0,0-1.219-.487h-7.256a3.02,3.02,0,0,0-1.875.787q-7.5,7.275-14.812,14.7a2.043,2.043,0,0,0-.563,1.294c0,2.381,0,4.781,0,7.163a3.168,3.168,0,0,0,.787,1.875c4.856,4.987,9.75,9.919,14.681,14.85a2.118,2.118,0,0,0,1.294.544h6.938a3.038,3.038,0,0,0,2.325-.975c4.425-4.462,8.831-8.925,13.388-13.275a4.763,4.763,0,0,0,1.875-4.444,11.78,11.78,0,0,1-.075-1.706Z" transform="translate(-111.288 -682.66)" fill="#aac940"/></svg>