<svg xmlns="http://www.w3.org/2000/svg" xmlns:xlink="http://www.w3.org/1999/xlink" width="319.128" height="61.391" viewBox="0 0 319.128 61.391"><defs><clipPath id="a"><rect width="319.128" height="61.391" fill="#fff"/></clipPath></defs><g clip-path="url(#a)"><path d="M64.211,161.169A4.038,4.038,0,0,0,60.9,160.3c-8.287,2.589-14.083,3.585-21.422,3.176a51.116,51.116,0,0,1-15.249-3.283,30.3,30.3,0,0,0,41,3.83,4.15,4.15,0,0,0-1.008-2.856" transform="translate(-16.466 -108.888)" fill="#fff"/><path d="M10.413,72.393c2.983-.365,5.826-3.085,7.895-4.253,3.687-2.08,6.858-3.575,11.185-3.372,5.659.265,9.87,2.669,14.586,5.075-.64-2.969-2.046-4.6-4.722-6.328-3.012-1.949-6.574-2.922-9.428-5.137a27.965,27.965,0,0,1-7.955-9.324c-1.808-3.451-3.4-7.279-5.278-10.693-2.5-4.533-6.447-6.234-8.616-5.789A30.293,30.293,0,0,0,5,69.826a5.76,5.76,0,0,0,5.409,2.566" transform="translate(0 -22.093)" fill="#fff"/><path d="M157.807,72.773c-.9,3.012-1.026,4.446-.344,5.781a3.369,3.369,0,0,0,2.571,1.614,29.61,29.61,0,0,0,6.212-11.583,30.252,30.252,0,0,0-4.262-25.431,18.693,18.693,0,0,1,1.153,6.282c.388,8.017-3.092,15.839-5.331,23.337" transform="translate(-106.737 -29.333)" fill="#fff"/><path d="M35.305,9.286l-.024.017a26.655,26.655,0,0,1,8.536,1.857A30.834,30.834,0,0,1,60.212,25.052c4.247,7.606,6.907,17.893,9.615,23.478a22.249,22.249,0,0,0,4.833,6.583c.52-.467,1.016-.951,1.493-1.441C69.13,49.1,67.8,41.349,69.784,34.251c2.188-7.807,5.9-9.88,7.858-15.4,1.067-3.008.279-5.275-1.879-7.6A30.817,30.817,0,0,0,62.482,3.479,30.142,30.142,0,0,0,42.141,4.919a40.585,40.585,0,0,0-6.836,4.368" transform="translate(-23.981 -1.598)" fill="#fff"/><path d="M252.892,39.931H228.716l-5.208,11.592h-4.773L238.572,8.129H243.1l19.837,43.394H258.1Zm-1.674-3.72L240.8,12.9,230.39,36.211Z" transform="translate(-148.68 -5.526)" fill="#fff"/><rect width="4.402" height="45.997" transform="translate(115.865)" fill="#fff"/><path d="M438.486,8.129V51.523H434.7l-27.9-35.21v35.21h-4.587V8.129H406L433.96,43.34V8.129Z" transform="translate(-273.4 -5.526)" fill="#fff"/><path d="M557.57,44.226q3.408,3.193,3.41,9.453V73.888h-4.216V68.8a10.088,10.088,0,0,1-4.369,3.968,15.3,15.3,0,0,1-6.851,1.426q-5.455,0-8.679-2.6a8.956,8.956,0,0,1-.216-13.576q3.007-2.54,9.577-2.542h10.352V53.494q0-4.215-2.356-6.416t-6.88-2.2a17.47,17.47,0,0,0-5.951,1.024,15,15,0,0,0-4.9,2.821l-1.984-3.286a17.61,17.61,0,0,1,5.951-3.254,23.172,23.172,0,0,1,7.315-1.147q6.385,0,9.795,3.193m-4.959,24.8a10.181,10.181,0,0,0,3.967-4.928V58.763H546.349q-8.369,0-8.368,5.827a5.328,5.328,0,0,0,2.17,4.494,9.867,9.867,0,0,0,6.074,1.643,11.6,11.6,0,0,0,6.386-1.7" transform="translate(-362.73 -27.891)" fill="#fff"/><path d="M648.221,57.3a8.35,8.35,0,0,1-3.069,1.7,12.376,12.376,0,0,1-3.812.589q-4.587,0-7.067-2.481a9.467,9.467,0,0,1-2.479-7V30.4h-5.828v-3.72h5.828V19.549h4.4v7.129h9.918V30.4H636.2V49.863a6.156,6.156,0,0,0,1.456,4.432,5.526,5.526,0,0,0,4.185,1.519,8.078,8.078,0,0,0,2.634-.434,6.524,6.524,0,0,0,2.2-1.24Z" transform="translate(-425.486 -13.288)" fill="#fff"/><path d="M734.63,41.808V74.415h-4.216V68.464a12.069,12.069,0,0,1-4.773,4.618,14.348,14.348,0,0,1-6.943,1.643q-6.385,0-10.073-3.564t-3.687-10.445V41.808h4.4V60.282q0,5.146,2.542,7.811t7.253,2.665a10.67,10.67,0,0,0,8.121-3.131q2.974-3.13,2.975-8.709V41.808Z" transform="translate(-479.165 -28.418)" fill="#fff"/><path d="M830.48,42.707a15.691,15.691,0,0,1,7.594-1.674v4.278l-1.053-.062a10.412,10.412,0,0,0-8.059,3.161q-2.913,3.162-2.914,8.865V73.888h-4.4V41.281h4.216v6.385a10.666,10.666,0,0,1,4.618-4.959" transform="translate(-558.495 -27.891)" fill="#fff"/><path d="M898.419,44.226q3.408,3.193,3.409,9.453V73.888h-4.216V68.8a10.091,10.091,0,0,1-4.371,3.968,15.285,15.285,0,0,1-6.849,1.426q-5.457,0-8.678-2.6a8.958,8.958,0,0,1-.218-13.576q3.007-2.54,9.579-2.542h10.352V53.494q0-4.215-2.356-6.416t-6.882-2.2a17.477,17.477,0,0,0-5.951,1.024,14.993,14.993,0,0,0-4.9,2.821l-1.984-3.286a17.594,17.594,0,0,1,5.951-3.254,23.158,23.158,0,0,1,7.315-1.147q6.385,0,9.8,3.193m-4.961,24.8a10.184,10.184,0,0,0,3.968-4.928V58.763H887.2q-8.369,0-8.37,5.827A5.328,5.328,0,0,0,881,69.084a9.873,9.873,0,0,0,6.076,1.643,11.593,11.593,0,0,0,6.384-1.7" transform="translate(-594.415 -27.891)" fill="#fff"/><rect width="4.402" height="45.997" transform="translate(314.726)" fill="#fff"/><path d="M220.83,173.065a3.956,3.956,0,0,1-1.537-1.5,4.394,4.394,0,0,1,0-4.286,3.94,3.94,0,0,1,1.543-1.5,4.519,4.519,0,0,1,2.208-.54,4.591,4.591,0,0,1,1.69.3,3.508,3.508,0,0,1,1.313.893L225.5,167a3.274,3.274,0,0,0-2.431-.975,3.566,3.566,0,0,0-1.771.446,3.256,3.256,0,0,0-1.251,1.221,3.568,3.568,0,0,0,0,3.475,3.251,3.251,0,0,0,1.251,1.221,3.567,3.567,0,0,0,1.771.446,3.23,3.23,0,0,0,2.431-.986l.551.552a3.542,3.542,0,0,1-1.32.9,4.769,4.769,0,0,1-3.9-.229" transform="translate(-148.68 -112.323)" fill="#fff"/><path d="M267.835,172.935v.751h-5.812v-8.218h5.636v.751h-4.767v2.924h4.25v.74h-4.25v3.052Z" transform="translate(-178.104 -112.473)" fill="#fff"/><path d="M308.078,165.469v8.218h-.717l-5.283-6.668v6.668h-.869v-8.218h.717l5.295,6.668v-6.668Z" transform="translate(-204.74 -112.474)" fill="#fff"/><path d="M344.529,166.219h-2.887v-.751h6.645v.751H345.4v7.467h-.869Z" transform="translate(-232.223 -112.473)" fill="#fff"/><path d="M386.988,173.686l-1.878-2.641a5.886,5.886,0,0,1-.658.036h-2.206v2.606h-.869v-8.218h3.075a3.715,3.715,0,0,1,2.466.751,2.558,2.558,0,0,1,.893,2.067,2.551,2.551,0,0,1-1.88,2.583l2.008,2.817ZM386.3,169.8a2.12,2.12,0,0,0,0-3.047,2.864,2.864,0,0,0-1.866-.534h-2.184v4.121h2.184a2.84,2.84,0,0,0,1.866-.54" transform="translate(-259.232 -112.473)" fill="#fff"/><path d="M422.374,173.06a3.981,3.981,0,0,1-1.549-1.5,4.37,4.37,0,0,1,0-4.273,3.987,3.987,0,0,1,1.549-1.5,4.76,4.76,0,0,1,4.416-.006,4,4,0,0,1,1.543,1.5,4.361,4.361,0,0,1,0,4.286,4,4,0,0,1-1.543,1.5,4.761,4.761,0,0,1-4.416-.006m3.974-.669a3.188,3.188,0,0,0,1.232-1.222,3.629,3.629,0,0,0,0-3.486,3.192,3.192,0,0,0-1.232-1.221,3.542,3.542,0,0,0-1.761-.44,3.58,3.58,0,0,0-1.767.44,3.223,3.223,0,0,0-1.244,1.221,3.593,3.593,0,0,0,0,3.486,3.219,3.219,0,0,0,1.244,1.222,3.58,3.58,0,0,0,1.767.44,3.542,3.542,0,0,0,1.761-.44" transform="translate(-285.668 -112.323)" fill="#fff"/><path d="M492.222,165.469h3.347a4.892,4.892,0,0,1,2.3.522,3.808,3.808,0,0,1,1.549,1.456,4.383,4.383,0,0,1,0,4.262,3.809,3.809,0,0,1-1.549,1.455,4.889,4.889,0,0,1-2.3.522h-3.347Zm3.3,7.466a3.981,3.981,0,0,0,1.89-.429,3.114,3.114,0,0,0,1.256-1.186,3.628,3.628,0,0,0,0-3.486,3.122,3.122,0,0,0-1.256-1.186,3.985,3.985,0,0,0-1.89-.429h-2.431v6.715Z" transform="translate(-334.577 -112.474)" fill="#fff"/><path d="M542.973,172.935v.751h-5.812v-8.218H542.8v.751H538.03v2.924h4.25v.74h-4.25v3.052Z" transform="translate(-365.123 -112.473)" fill="#fff"/><path d="M606.424,172.935v.751h-5.812v-8.218h5.636v.751h-4.767v2.924h4.25v.74h-4.25v3.052Z" transform="translate(-408.253 -112.473)" fill="#fff"/><path d="M642.206,173.686l-2.653-3.616-2.642,3.616h-1l3.122-4.226-2.923-3.991h1l2.477,3.357,2.466-3.357h.938l-2.911,3.968,3.134,4.25Z" transform="translate(-432.248 -112.474)" fill="#fff"/><path d="M682.837,166.219a2.832,2.832,0,0,1,0,4.127,3.731,3.731,0,0,1-2.464.745h-2.208v2.6H677.3v-8.218h3.077a3.715,3.715,0,0,1,2.464.75m-.622,3.576a1.847,1.847,0,0,0,.646-1.509,1.876,1.876,0,0,0-.646-1.533,2.861,2.861,0,0,0-1.866-.534h-2.184v4.11h2.184a2.861,2.861,0,0,0,1.866-.534" transform="translate(-460.376 -112.474)" fill="#fff"/><path d="M723.725,172.935v.751h-5.812v-8.218h5.635v.751h-4.766v2.924h4.25v.74h-4.25v3.052Z" transform="translate(-487.985 -112.473)" fill="#fff"/><path d="M762.71,173.686l-1.878-2.641a5.884,5.884,0,0,1-.658.036h-2.206v2.606H757.1v-8.218h3.075a3.715,3.715,0,0,1,2.466.751,2.558,2.558,0,0,1,.893,2.067,2.551,2.551,0,0,1-1.88,2.583l2.008,2.817Zm-.691-3.886a2.12,2.12,0,0,0,0-3.047,2.864,2.864,0,0,0-1.866-.534h-2.184v4.121h2.184a2.84,2.84,0,0,0,1.866-.54" transform="translate(-514.621 -112.473)" fill="#fff"/><rect width="0.869" height="8.218" transform="translate(255.661 52.995)" fill="#fff"/><path d="M829.8,172.935v.751h-5.812v-8.218h5.636v.751h-4.767v2.924h4.25v.74h-4.25v3.052Z" transform="translate(-560.09 -112.473)" fill="#fff"/><path d="M870.047,165.469v8.218h-.717l-5.283-6.668v6.668h-.869v-8.218h.717l5.295,6.668v-6.668Z" transform="translate(-586.726 -112.474)" fill="#fff"/><path d="M907.464,173.065a3.947,3.947,0,0,1-1.538-1.5,4.393,4.393,0,0,1,0-4.286,3.95,3.95,0,0,1,1.543-1.5,4.519,4.519,0,0,1,2.208-.54,4.585,4.585,0,0,1,1.691.3,3.5,3.5,0,0,1,1.315.893l-.553.552a3.267,3.267,0,0,0-2.429-.975,3.575,3.575,0,0,0-1.773.446,3.254,3.254,0,0,0-1.249,1.221,3.557,3.557,0,0,0,0,3.475,3.249,3.249,0,0,0,1.249,1.221,3.575,3.575,0,0,0,1.773.446,3.227,3.227,0,0,0,2.429-.986l.553.552a3.558,3.558,0,0,1-1.32.9,4.539,4.539,0,0,1-1.7.311,4.484,4.484,0,0,1-2.2-.54" transform="translate(-615.403 -112.323)" fill="#fff"/><rect width="0.869" height="8.218" transform="translate(303.83 52.995)" fill="#fff"/><path d="M976.755,171.491h-4.58l-.985,2.2h-.9l3.756-8.218h.857l3.758,8.218h-.916Zm-.318-.7-1.973-4.414-1.971,4.414Z" transform="translate(-659.53 -112.474)" fill="#fff"/></g></svg>