<svg xmlns="http://www.w3.org/2000/svg" xmlns:xlink="http://www.w3.org/1999/xlink" width="53.361" height="46.994" viewBox="0 0 53.361 46.994"><defs><clipPath id="a"><rect width="53.361" height="46.994" fill="#086175"/></clipPath></defs><g clip-path="url(#a)"><path d="M53.361,8.253c-.379,1.259-.771,2.514-1.133,3.777q-2.56,8.942-5.106,17.887a1.638,1.638,0,0,1-1.88,1.414q-13.131,0-26.261-.014a.977.977,0,0,0-1.05.652,1.61,1.61,0,0,0,1.579,2.494q12.844,0,25.688,0a3.137,3.137,0,0,1,.673.041,1.56,1.56,0,0,1-.343,3.086c-1.65.014-3.3,0-4.95.005h-.589c2.8.845,4.318,2.928,3.955,5.287a4.688,4.688,0,0,1-9.309-.037,4.748,4.748,0,0,1,3.929-5.221H24.334c2.682.776,4.206,2.844,3.881,5.206a4.69,4.69,0,0,1-9.318.016,4.792,4.792,0,0,1,3.811-5.25H19.52a4.692,4.692,0,0,1-4.871-3.713,4.366,4.366,0,0,1,.5-3.274,2.375,2.375,0,0,0,.2-2.051Q11.75,16.092,8.219,3.607c-.042-.148-.1-.292-.154-.471H3.789c-.729,0-1.459.01-2.188,0A1.564,1.564,0,1,1,1.624.006Q5.4-.007,9.179.006a1.584,1.584,0,0,1,1.641,1.32c.47,1.634.931,3.271,1.406,4.943h.685q19.2,0,38.4-.014a1.967,1.967,0,0,1,2.049,1.162Z" transform="translate(-0.001 0)" fill="#086175"/></g></svg>