<svg xmlns="http://www.w3.org/2000/svg" xmlns:xlink="http://www.w3.org/1999/xlink" width="206.84" height="123.153" viewBox="0 0 206.84 123.153"><defs><clipPath id="a"><rect width="206.84" height="123.153" fill="none"/></clipPath></defs><g clip-path="url(#a)"><path d="M406.023,259.129a4.5,4.5,0,0,0-3.692-.966c-9.228,2.883-15.683,3.992-23.854,3.537a56.929,56.929,0,0,1-16.981-3.655,33.742,33.742,0,0,0,45.651,4.265,4.623,4.623,0,0,0-1.122-3.18" transform="translate(-282.633 -201.75)" fill="#8d501a"/><path d="M333.49,93.712c3.322-.406,6.488-3.435,8.791-4.736,4.106-2.315,7.637-3.98,12.455-3.754,6.3.294,10.991,2.971,16.242,5.651-.712-3.306-2.278-5.118-5.258-7.047-3.354-2.171-7.321-3.254-10.5-5.721a31.14,31.14,0,0,1-8.858-10.382c-2.013-3.843-3.785-8.106-5.877-11.907-2.779-5.047-7.179-6.942-9.595-6.447a33.732,33.732,0,0,0-3.423,41.486,6.415,6.415,0,0,0,6.023,2.858" transform="translate(-251.671 -38.538)" fill="#aac940"/><path d="M579.47,99.688c-1,3.353-1.143,4.951-.383,6.438a3.752,3.752,0,0,0,2.863,1.8,32.97,32.97,0,0,0,6.917-12.9,33.686,33.686,0,0,0-4.745-28.318,20.822,20.822,0,0,1,1.284,7c.433,8.927-3.444,17.638-5.936,25.987" transform="translate(-452.378 -52.154)" fill="#8d501a"/><path d="M379.6,7.723l-.027.019a29.675,29.675,0,0,1,9.506,2.068c7.888,3.079,14.105,8.036,18.256,15.47,4.729,8.469,7.691,19.924,10.706,26.144a24.767,24.767,0,0,0,5.382,7.33c.58-.52,1.132-1.058,1.663-1.6-7.82-5.093-9.307-13.722-7.092-21.627,2.436-8.693,6.568-11,8.751-17.146,1.188-3.349.311-5.874-2.093-8.462a34.319,34.319,0,0,0-14.79-8.658,33.566,33.566,0,0,0-22.651,1.6A45.194,45.194,0,0,0,379.6,7.723" transform="translate(-296.766 0)" fill="#086175"/><path d="M28.365,367.557H8.288l-4.325,9.626H0l16.474-36.036h3.757L36.7,377.184H32.69Zm-1.39-3.089-8.648-19.357L9.679,364.469Z" transform="translate(0 -266.725)" fill="#aac940"/><rect width="3.655" height="38.198" transform="translate(38.042 72.261)" fill="#aac940"/><path d="M253.816,341.149v36.036h-3.141l-23.166-29.24v29.24H223.7V341.149h3.141l23.216,29.241V341.149Z" transform="translate(-174.898 -266.725)" fill="#086175"/><path d="M403.794,383.915q2.831,2.652,2.831,7.851v16.782h-3.5v-4.221a8.378,8.378,0,0,1-3.628,3.295,12.7,12.7,0,0,1-5.69,1.184,11.142,11.142,0,0,1-7.207-2.162,7.438,7.438,0,0,1-.18-11.274q2.5-2.11,7.953-2.111h8.6v-1.647a6.942,6.942,0,0,0-1.956-5.328,8.082,8.082,0,0,0-5.714-1.828,14.508,14.508,0,0,0-4.942.85,12.461,12.461,0,0,0-4.067,2.342l-1.648-2.729a14.625,14.625,0,0,1,4.942-2.7,19.245,19.245,0,0,1,6.075-.953q5.3,0,8.134,2.651m-4.118,20.592a8.455,8.455,0,0,0,3.294-4.093v-4.428h-8.494q-6.95,0-6.949,4.839a4.425,4.425,0,0,0,1.8,3.732,8.194,8.194,0,0,0,5.044,1.365,9.632,9.632,0,0,0,5.3-1.416" transform="translate(-300.168 -298.089)" fill="#086175"/><path d="M514.964,386.423a6.937,6.937,0,0,1-2.548,1.416,10.274,10.274,0,0,1-3.165.489,7.172,7.172,0,0,1-7.928-7.877V364.08h-4.84v-3.089h4.84v-5.92h3.655v5.92h8.236v3.089h-8.236v16.164a5.113,5.113,0,0,0,1.209,3.681,4.589,4.589,0,0,0,3.476,1.261,6.712,6.712,0,0,0,2.187-.36,5.417,5.417,0,0,0,1.828-1.03Z" transform="translate(-388.172 -277.61)" fill="#086175"/><path d="M617.42,382.209v27.078h-3.5v-4.942a10.022,10.022,0,0,1-3.964,3.835,11.917,11.917,0,0,1-5.766,1.365q-5.3,0-8.365-2.96t-3.062-8.674v-15.7h3.654V397.55q0,4.273,2.111,6.486a7.928,7.928,0,0,0,6.023,2.213,8.862,8.862,0,0,0,6.744-2.6,10.08,10.08,0,0,0,2.47-7.233V382.209Z" transform="translate(-463.448 -298.828)" fill="#086175"/><path d="M742.385,382.655a13.034,13.034,0,0,1,6.307-1.39v3.552l-.875-.052a8.65,8.65,0,0,0-6.693,2.625q-2.419,2.626-2.419,7.362v13.8h-3.655V381.471h3.5v5.3a8.857,8.857,0,0,1,3.835-4.118" transform="translate(-574.694 -298.09)" fill="#086175"/><path d="M819.345,383.915q2.83,2.652,2.831,7.851v16.782h-3.5v-4.221a8.382,8.382,0,0,1-3.63,3.295,12.692,12.692,0,0,1-5.688,1.184,11.136,11.136,0,0,1-7.207-2.162,7.439,7.439,0,0,1-.181-11.274q2.5-2.11,7.955-2.111h8.6v-1.647a6.943,6.943,0,0,0-1.956-5.328,8.087,8.087,0,0,0-5.715-1.828,14.512,14.512,0,0,0-4.942.85,12.449,12.449,0,0,0-4.066,2.342l-1.648-2.729a14.617,14.617,0,0,1,4.942-2.7,19.234,19.234,0,0,1,6.075-.953q5.3,0,8.134,2.651m-4.119,20.592a8.46,8.46,0,0,0,3.3-4.093v-4.428h-8.494q-6.95,0-6.951,4.839a4.424,4.424,0,0,0,1.8,3.732,8.2,8.2,0,0,0,5.045,1.365,9.627,9.627,0,0,0,5.3-1.416" transform="translate(-625.064 -298.089)" fill="#086175"/><rect width="3.655" height="38.198" transform="translate(203.185 72.261)" fill="#086175"/><path d="M1.739,539.194a3.285,3.285,0,0,1-1.276-1.242,3.65,3.65,0,0,1,0-3.559,3.273,3.273,0,0,1,1.282-1.243,3.754,3.754,0,0,1,1.833-.448,3.811,3.811,0,0,1,1.4.253,2.913,2.913,0,0,1,1.091.741l-.457.458a2.718,2.718,0,0,0-2.019-.809,2.962,2.962,0,0,0-1.471.371,2.7,2.7,0,0,0-1.039,1.014,2.963,2.963,0,0,0,0,2.885,2.7,2.7,0,0,0,1.039,1.015A2.965,2.965,0,0,0,3.6,539a2.682,2.682,0,0,0,2.019-.819l.457.458a2.941,2.941,0,0,1-1.1.745,3.764,3.764,0,0,1-1.408.258,3.728,3.728,0,0,1-1.829-.449" transform="translate(0 -416.489)" fill="#086175"/><path d="M57.6,539.172v.624H52.775v-6.824h4.681v.623H53.5v2.428h3.529v.614H53.5v2.535Z" transform="translate(-41.262 -416.701)" fill="#086175"/><path d="M106.254,532.971V539.8h-.6l-4.387-5.537V539.8h-.722v-6.824h.6l4.4,5.538v-5.538Z" transform="translate(-78.614 -416.701)" fill="#086175"/><path d="M152.241,533.6h-2.4v-.623h5.518v.623h-2.4v6.2h-.722Z" transform="translate(-117.154 -416.701)" fill="#086175"/><path d="M202.946,539.8l-1.56-2.194a4.905,4.905,0,0,1-.546.029h-1.832V539.8h-.721v-6.824h2.554a3.086,3.086,0,0,1,2.048.623,2.125,2.125,0,0,1,.741,1.716,2.119,2.119,0,0,1-1.561,2.145l1.668,2.34Zm-.574-3.227a1.761,1.761,0,0,0,0-2.53,2.378,2.378,0,0,0-1.55-.444h-1.814v3.423h1.814a2.359,2.359,0,0,0,1.55-.449" transform="translate(-155.03 -416.701)" fill="#086175"/><path d="M247.451,539.189a3.307,3.307,0,0,1-1.286-1.242,3.631,3.631,0,0,1,0-3.549,3.315,3.315,0,0,1,1.286-1.243,3.953,3.953,0,0,1,3.667,0,3.322,3.322,0,0,1,1.282,1.243,3.62,3.62,0,0,1,0,3.559,3.319,3.319,0,0,1-1.282,1.243,3.952,3.952,0,0,1-3.667-.005m3.3-.555a2.645,2.645,0,0,0,1.023-1.014,3.013,3.013,0,0,0,0-2.9,2.647,2.647,0,0,0-1.023-1.014,2.942,2.942,0,0,0-1.463-.366,2.972,2.972,0,0,0-1.467.366,2.674,2.674,0,0,0-1.033,1.014,2.984,2.984,0,0,0,0,2.9,2.673,2.673,0,0,0,1.033,1.014,2.972,2.972,0,0,0,1.467.366,2.942,2.942,0,0,0,1.463-.366" transform="translate(-192.101 -416.489)" fill="#086175"/><path d="M333.426,532.972h2.78a4.059,4.059,0,0,1,1.911.434,3.16,3.16,0,0,1,1.286,1.209,3.64,3.64,0,0,1,0,3.539,3.162,3.162,0,0,1-1.286,1.209,4.06,4.06,0,0,1-1.911.434h-2.78Zm2.74,6.2a3.31,3.31,0,0,0,1.57-.356,2.588,2.588,0,0,0,1.043-.985,3.013,3.013,0,0,0,0-2.9,2.6,2.6,0,0,0-1.043-.985,3.314,3.314,0,0,0-1.57-.356h-2.019v5.577Z" transform="translate(-260.687 -416.701)" fill="#086175"/><path d="M393.042,539.172v.624h-4.826v-6.824H392.9v.623h-3.959v2.428h3.529v.614h-3.529v2.535Z" transform="translate(-303.524 -416.701)" fill="#086175"/><path d="M470.4,539.172v.624h-4.826v-6.824h4.68v.623h-3.959v2.428h3.529v.614h-3.529v2.535Z" transform="translate(-364.005 -416.701)" fill="#086175"/><path d="M513.836,539.8l-2.2-3-2.194,3h-.828l2.593-3.51-2.427-3.314h.828l2.057,2.788,2.048-2.788h.779l-2.417,3.295,2.6,3.529Z" transform="translate(-397.654 -416.701)" fill="#086175"/><path d="M563.665,533.594a2.352,2.352,0,0,1,0,3.427,3.1,3.1,0,0,1-2.047.618h-1.834V539.8h-.721v-6.824h2.555a3.085,3.085,0,0,1,2.047.623m-.517,2.969a1.534,1.534,0,0,0,.536-1.253,1.557,1.557,0,0,0-.536-1.273,2.376,2.376,0,0,0-1.55-.444h-1.814v3.413H561.6a2.375,2.375,0,0,0,1.55-.444" transform="translate(-437.1 -416.7)" fill="#086175"/><path d="M613.408,539.172v.624h-4.827v-6.824h4.679v.623H609.3v2.428h3.529v.614H609.3v2.535Z" transform="translate(-475.816 -416.701)" fill="#086175"/><path d="M661.015,539.8l-1.56-2.194a4.912,4.912,0,0,1-.546.029h-1.832V539.8h-.721v-6.824h2.553a3.086,3.086,0,0,1,2.048.623,2.124,2.124,0,0,1,.741,1.716,2.119,2.119,0,0,1-1.561,2.145l1.668,2.34Zm-.574-3.227a1.761,1.761,0,0,0,0-2.53,2.377,2.377,0,0,0-1.55-.444h-1.814v3.423h1.814a2.358,2.358,0,0,0,1.55-.449" transform="translate(-513.168 -416.701)" fill="#086175"/><rect width="0.722" height="6.824" transform="translate(154.135 116.271)" fill="#086175"/><path d="M742.736,539.172v.624h-4.827v-6.824h4.681v.623h-3.959v2.428h3.529v.614h-3.529v2.535Z" transform="translate(-576.93 -416.701)" fill="#086175"/><path d="M791.388,532.971V539.8h-.6l-4.387-5.537V539.8h-.722v-6.824h.6l4.4,5.538v-5.538Z" transform="translate(-614.283 -416.701)" fill="#086175"/><path d="M838.861,539.194a3.279,3.279,0,0,1-1.278-1.242,3.648,3.648,0,0,1,0-3.559,3.283,3.283,0,0,1,1.282-1.243,3.756,3.756,0,0,1,1.834-.448,3.806,3.806,0,0,1,1.4.253,2.908,2.908,0,0,1,1.092.741l-.459.458a2.713,2.713,0,0,0-2.017-.809,2.968,2.968,0,0,0-1.473.371,2.7,2.7,0,0,0-1.037,1.014,2.954,2.954,0,0,0,0,2.885,2.7,2.7,0,0,0,1.037,1.015,2.971,2.971,0,0,0,1.473.371,2.681,2.681,0,0,0,2.017-.819l.459.458a2.954,2.954,0,0,1-1.1.745,3.77,3.77,0,0,1-1.409.258,3.722,3.722,0,0,1-1.828-.449" transform="translate(-654.498 -416.489)" fill="#086175"/><rect width="0.722" height="6.824" transform="translate(194.137 116.271)" fill="#086175"/><path d="M921.639,537.972h-3.8l-.819,1.823h-.751l3.12-6.824h.712l3.121,6.824h-.761Zm-.264-.585-1.638-3.665-1.637,3.665Z" transform="translate(-716.378 -416.7)" fill="#086175"/></g></svg>